# xmcd
#
# Track frame offsets:
#	150
#	13735
#	30448
#
# Disc length: 580 seconds
#
# Revision: 0
# Processed by: cddbd v1.5.2PL0 Copyright (c) Steve Scherf et al.
# Submitted via: audiograbber 1.83.01
#
DISCID=17024203
DTITLE=Tom Astor - Kleiner Rebell (Maxi)
DYEAR=1900
DGENRE=Country
TTITLE0=Kleiner Rebell
TTITLE1=Verrückt sein und sonst gar nichts
TTITLE2=I'm getting good at missing you
EXTD=
EXTT0=
EXTT1=
EXTT2=
PLAYORDER=
